<?xml version="1.0" encoding="UTF-8" standalone="no"?>
<!-- Created with Inkscape (http://www.inkscape.org/) -->

<svg
   xmlns:dc="http://purl.org/dc/elements/1.1/"
   xmlns:cc="http://creativecommons.org/ns#"
   xmlns:rdf="http://www.w3.org/1999/02/22-rdf-syntax-ns#"
   xmlns:svg="http://www.w3.org/2000/svg"
   xmlns="http://www.w3.org/2000/svg"
   xmlns:sodipodi="http://sodipodi.sourceforge.net/DTD/sodipodi-0.dtd"
   xmlns:inkscape="http://www.inkscape.org/namespaces/inkscape"
   width="33mm"
   height="33mm"
   viewBox="0 0 116.92913 116.92914"
   id="svg18236"
   version="1.1"
   inkscape:version="0.91 r"
   sodipodi:docname="lcD.svg">
  <defs
     id="defs18238">
    <clipPath
       clipPathUnits="userSpaceOnUse"
       id="clipPath80">
      <path
         d="m 0,6260.189 2557.562,0 L 2557.562,0 0,0 0,6260.189 Z"
         id="path82"
         inkscape:connector-curvature="0" />
    </clipPath>
    <clipPath
       clipPathUnits="userSpaceOnUse"
       id="clipPath116">
      <path
         d="m 0,6260.189 2557.562,0 L 2557.562,0 0,0 0,6260.189 Z"
         id="path118"
         inkscape:connector-curvature="0" />
    </clipPath>
    <clipPath
       clipPathUnits="userSpaceOnUse"
       id="clipPath188">
      <path
         d="m 0,3032.239 2560,0 L 2560,0 0,0 0,3032.239 Z"
         id="path190"
         inkscape:connector-curvature="0" />
    </clipPath>
    <clipPath
       clipPathUnits="userSpaceOnUse"
       id="clipPath314">
      <path
         d="m 0,3032.239 2560,0 L 2560,0 0,0 0,3032.239 Z"
         id="path316"
         inkscape:connector-curvature="0" />
    </clipPath>
  </defs>
  <sodipodi:namedview
     id="base"
     pagecolor="#ffffff"
     bordercolor="#666666"
     borderopacity="1.0"
     inkscape:pageopacity="0.0"
     inkscape:pageshadow="2"
     inkscape:zoom="1.4"
     inkscape:cx="206.20161"
     inkscape:cy="165.79989"
     inkscape:document-units="px"
     inkscape:current-layer="layer1"
     showgrid="false"
     inkscape:window-width="1920"
     inkscape:window-height="1016"
     inkscape:window-x="0"
     inkscape:window-y="0"
     inkscape:window-maximized="1" />
  <metadata
     id="metadata18241">
    <rdf:RDF>
      <cc:Work
         rdf:about="">
        <dc:format>image/svg+xml</dc:format>
        <dc:type
           rdf:resource="http://purl.org/dc/dcmitype/StillImage" />
        <dc:title></dc:title>
      </cc:Work>
    </rdf:RDF>
  </metadata>
  <g
     inkscape:label="Layer 1"
     inkscape:groupmode="layer"
     id="layer1"
     transform="translate(0,-935.43305)">
    <g
       transform="matrix(1.2500001,0,0,-1.2500001,-2340.2661,3633.5555)"
       id="g310">
      <g
         id="g312"
         clip-path="url(#clipPath314)">
        <g
           id="g318"
           transform="translate(1929.9183,1825.0775)" />
        <g
           id="g322"
           transform="translate(1895.0927,1825.0775)" />
        <g
           id="g326"
           transform="translate(1940.004,2136.9067)">
          <path
             d="M 0,0 C -0.478,0.557 6.807,5.371 7.864,3.033 8.947,0.66 0.472,-0.567 0,0 m 6.405,-9.134 c -1.448,-2.155 -6.923,4.425 -6.689,5.121 0.22,0.691 8.135,-2.986 6.689,-5.121 M -2.687,1.402 C -3.38,1.163 -5.272,9.684 -2.701,9.834 -0.104,9.986 -2.006,1.643 -2.687,1.402 m -9.874,2.115 C -11.515,5.915 -4.93,0.458 -5.03,-0.268 -5.124,-1 -13.577,1.159 -12.561,3.517 m 10.218,8.888 c -7.389,0 -13.38,-5.991 -13.38,-13.38 0,-3.636 1.455,-6.928 3.808,-9.339 l 3.849,5.352 c 0.176,0.338 0.397,0.642 0.659,0.904 0.701,0.7 1.631,1.085 2.619,1.085 0.99,0 1.92,-0.386 2.619,-1.087 1.225,-1.224 1.432,-3.17 0.491,-4.627 L -1.726,-8.76 -1.898,-8.98 c -1.02,-1.294 -2.329,-3.001 -3.793,-4.936 1.072,-0.277 2.189,-0.439 3.348,-0.439 7.39,0 13.38,5.99 13.38,13.38 -0.001,7.389 -5.991,13.38 -13.38,13.38"
             style="fill:#000000;fill-opacity:1;fill-rule:nonzero;stroke:none"
             id="path328"
             inkscape:connector-curvature="0" />
        </g>
        <g
           id="g330"
           transform="translate(1936.7064,2129.0291)">
          <path
             d="m 0,0 0.125,0.158 c 0.489,0.756 0.382,1.764 -0.253,2.399 -0.365,0.365 -0.847,0.566 -1.36,0.566 -0.513,0 -0.997,-0.201 -1.361,-0.565 C -2.98,2.427 -3.094,2.271 -3.185,2.094 L -3.245,1.98 -8.321,-5.077 c 0.024,-0.018 0.049,-0.034 0.072,-0.053 l 5.094,7.082 c 0.089,0.196 0.208,0.383 0.371,0.545 0.717,0.716 1.876,0.716 2.592,0 C 0.43,1.875 0.51,0.917 0.051,0.208 0.012,0.157 -0.03,0.105 -0.07,0.054 -1.432,-1.673 -3.297,-4.122 -5.357,-6.86 c 0.027,-0.012 0.054,-0.024 0.079,-0.035 l 1.465,1.934 C -2.246,-2.892 -0.964,-1.222 0,0"
             style="fill:#000000;fill-opacity:1;fill-rule:nonzero;stroke:none"
             id="path332"
             inkscape:connector-curvature="0" />
        </g>
        <g
           id="g334"
           transform="translate(1926.8147,2125.3484)">
          <path
             d="m 0,0 0.208,-0.214 0.007,0.008 C 0.144,-0.136 0.069,-0.071 0,0"
             style="fill:#000000;fill-opacity:1;fill-rule:nonzero;stroke:none"
             id="path336"
             inkscape:connector-curvature="0" />
        </g>
        <g
           id="g338"
           transform="translate(1926.8147,2125.3484)">
          <path
             d="M 0,0 C -0.354,0.363 -0.687,0.741 -0.999,1.132 -1.91,2.269 -2.644,3.518 -3.187,4.843 l -27.603,0 17.317,-24.085 L 0.208,-0.214 0,0 Z"
             style="fill:#000000;fill-opacity:1;fill-rule:nonzero;stroke:none"
             id="path340"
             inkscape:connector-curvature="0" />
        </g>
        <g
           id="g342"
           transform="translate(1936.5132,2131.5256)">
          <path
             d="M 0,0 C -0.715,0.716 -1.875,0.716 -2.592,0 -2.754,-0.162 -2.874,-0.348 -2.963,-0.545 L -8.057,-7.626 -23.171,-28.637 -43.46,-0.433 -43.772,0 c -0.716,0.716 -1.877,0.716 -2.593,0 -0.617,-0.616 -0.699,-1.561 -0.254,-2.27 0.08,-0.101 0.159,-0.203 0.243,-0.31 5.892,-7.541 21.075,-28.239 21.075,-28.239 l 0,-20.678 c 0,0 -7.439,-3.079 -10.731,-4.718 -0.045,-0.022 -0.091,-0.045 -0.134,-0.067 -0.136,-0.092 -0.231,-0.241 -0.231,-0.417 0,-0.284 0.231,-0.515 0.515,-0.515 l 24.804,0 c 0.284,0 0.515,0.231 0.515,0.515 0,0.17 -0.089,0.315 -0.218,0.408 -0.045,0.024 -0.093,0.05 -0.14,0.074 -3.095,1.639 -10.106,4.72 -10.106,4.72 l 0,20.678 c 0,0 9.015,12.353 15.864,21.462 2.06,2.738 3.924,5.187 5.287,6.914 0.04,0.051 0.082,0.104 0.121,0.153 C 0.703,-1.579 0.623,-0.623 0,0"
             style="fill:#000000;fill-opacity:1;fill-rule:nonzero;stroke:none"
             id="path344"
             inkscape:connector-curvature="0" />
        </g>
      </g>
    </g>
  </g>
</svg>
