<?xml version="1.0" encoding="UTF-8" standalone="no"?>
<!-- Created with Inkscape (http://www.inkscape.org/) -->

<svg
   xmlns:dc="http://purl.org/dc/elements/1.1/"
   xmlns:cc="http://creativecommons.org/ns#"
   xmlns:rdf="http://www.w3.org/1999/02/22-rdf-syntax-ns#"
   xmlns:svg="http://www.w3.org/2000/svg"
   xmlns="http://www.w3.org/2000/svg"
   xmlns:sodipodi="http://sodipodi.sourceforge.net/DTD/sodipodi-0.dtd"
   xmlns:inkscape="http://www.inkscape.org/namespaces/inkscape"
   width="33mm"
   height="33mm"
   viewBox="0 0 116.92913 116.92914"
   id="svg18236"
   version="1.1"
   inkscape:version="0.91 r"
   sodipodi:docname="lCd.svg">
  <defs
     id="defs18238">
    <clipPath
       clipPathUnits="userSpaceOnUse"
       id="clipPath80">
      <path
         d="m 0,6260.189 2557.562,0 L 2557.562,0 0,0 0,6260.189 Z"
         id="path82"
         inkscape:connector-curvature="0" />
    </clipPath>
    <clipPath
       clipPathUnits="userSpaceOnUse"
       id="clipPath116">
      <path
         d="m 0,6260.189 2557.562,0 L 2557.562,0 0,0 0,6260.189 Z"
         id="path118"
         inkscape:connector-curvature="0" />
    </clipPath>
    <clipPath
       clipPathUnits="userSpaceOnUse"
       id="clipPath188">
      <path
         d="m 0,3032.239 2560,0 L 2560,0 0,0 0,3032.239 Z"
         id="path190"
         inkscape:connector-curvature="0" />
    </clipPath>
  </defs>
  <sodipodi:namedview
     id="base"
     pagecolor="#ffffff"
     bordercolor="#666666"
     borderopacity="1.0"
     inkscape:pageopacity="0.0"
     inkscape:pageshadow="2"
     inkscape:zoom="1.4"
     inkscape:cx="206.20161"
     inkscape:cy="165.79989"
     inkscape:document-units="px"
     inkscape:current-layer="layer1"
     showgrid="false"
     inkscape:window-width="1920"
     inkscape:window-height="1016"
     inkscape:window-x="0"
     inkscape:window-y="0"
     inkscape:window-maximized="1" />
  <metadata
     id="metadata18241">
    <rdf:RDF>
      <cc:Work
         rdf:about="">
        <dc:format>image/svg+xml</dc:format>
        <dc:type
           rdf:resource="http://purl.org/dc/dcmitype/StillImage" />
        <dc:title></dc:title>
      </cc:Work>
    </rdf:RDF>
  </metadata>
  <g
     inkscape:label="Layer 1"
     inkscape:groupmode="layer"
     id="layer1"
     transform="translate(0,-935.43305)">
    <g
       transform="matrix(1.2500001,0,0,-1.2500001,-1541.4288,3633.5552)"
       id="g184">
      <g
         id="g186"
         clip-path="url(#clipPath188)">
        <g
           id="g192"
           transform="translate(767.653,1483.001)" />
        <g
           id="g196"
           transform="translate(766.7758,1485.634)" />
        <g
           id="g200"
           transform="translate(783.8953,1670.9043)" />
        <g
           id="g204"
           transform="translate(1281.5309,2134.3777)">
          <path
             d="m 0,0 c 0,0.566 -0.56,2.735 -1.251,2.735 l -0.558,0 C -2.5,2.735 -3.06,0.567 -3.06,0 l 0,-22.562 3.054,-0.007 L 0,0 Z"
             style="fill:#000000;fill-opacity:1;fill-rule:nonzero;stroke:none"
             id="path206"
             inkscape:connector-curvature="0" />
        </g>
        <g
           id="g208"
           transform="translate(1281.5309,2134.3777)">
          <path
             d="m 0,0 c 0,0.566 -0.56,2.735 -1.251,2.735 l -0.558,0 C -2.5,2.735 -3.06,0.567 -3.06,0 l 0,-22.562 3.054,-0.007 L 0,0 Z"
             style="fill:none;stroke:#000000;stroke-width:0.76499999;stroke-linecap:butt;stroke-linejoin:miter;stroke-miterlimit:10;stroke-dasharray:none;stroke-opacity:1"
             id="path210"
             inkscape:connector-curvature="0" />
        </g>
        <g
           id="g212"
           transform="translate(1292.8022,2106.6296)">
          <path
             d="m 0,0 -12.975,7.491 c -0.291,0.168 -0.877,-0.303 -1.309,-1.05 l -0.349,-0.605 c -0.432,-0.748 -0.547,-1.49 -0.255,-1.658 l 12.975,-7.491 c 0.291,-0.168 1.758,-0.207 2.189,0.541 l 0.349,0.605 C 1.058,-1.42 0.291,-0.168 0,0"
             style="fill:#000000;fill-opacity:1;fill-rule:nonzero;stroke:none"
             id="path214"
             inkscape:connector-curvature="0" />
        </g>
        <g
           id="g216"
           transform="translate(1292.8022,2106.6296)">
          <path
             d="m 0,0 -12.975,7.491 c -0.291,0.168 -0.877,-0.303 -1.309,-1.05 l -0.349,-0.605 c -0.432,-0.748 -0.547,-1.49 -0.255,-1.658 l 12.975,-7.491 c 0.291,-0.168 1.758,-0.207 2.189,0.541 l 0.349,0.605 C 1.058,-1.42 0.291,-0.168 0,0 Z"
             style="fill:none;stroke:#000000;stroke-width:0.76499999;stroke-linecap:butt;stroke-linejoin:miter;stroke-miterlimit:10;stroke-dasharray:none;stroke-opacity:1"
             id="path218"
             inkscape:connector-curvature="0" />
        </g>
        <g
           id="g220"
           transform="translate(1307.4707,2091.0352)">
          <path
             d="M 0,0 C 0.615,0.813 1.189,1.648 1.725,2.505 -0.08,3.556 -1.284,4.842 -0.97,5.387 -0.66,5.925 2.2,4.859 2.877,4.491 c 1.245,2.325 2.219,4.79 2.912,7.374 0.679,2.536 1.066,5.109 1.16,7.695 -0.747,0.015 -3.793,0.522 -3.793,1.146 10e-4,0.631 1.698,1.144 3.798,1.15 C 6.921,22.915 6.84,23.975 6.708,25.034 6.191,29.2 4.925,33.189 2.946,36.913 2.202,36.527 -0.556,35.508 -0.86,36.036 c -0.312,0.541 0.877,1.816 2.665,2.866 -1.426,2.306 -3.111,4.431 -5.019,6.327 -1.82,1.807 -3.842,3.406 -6.022,4.765 -1.053,-1.808 -2.338,-3.014 -2.883,-2.699 -0.545,0.314 -0.143,2.031 0.895,3.846 -4.645,2.478 -9.82,3.868 -15.083,4.052 -0.019,-2.061 -0.527,-3.714 -1.149,-3.714 -0.604,0 -1.099,2.859 -1.143,3.717 -2.53,-0.081 -5.043,-0.44 -7.49,-1.074 -2.63,-0.682 -5.181,-1.679 -7.596,-2.97 1.027,-1.806 1.421,-3.508 0.879,-3.822 -0.531,-0.307 -2.43,1.983 -2.866,2.674 -3.606,-2.241 -6.72,-5.08 -9.268,-8.451 -0.63,-0.834 -1.218,-1.692 -1.766,-2.572 -0.016,0.009 -0.029,0.017 -0.042,0.025 l -1.149,-1.991 c 0.014,-0.008 0.029,-0.016 0.043,-0.024 -1.227,-2.304 -2.189,-4.746 -2.875,-7.304 -0.691,-2.579 -1.08,-5.197 -1.164,-7.829 0.852,-0.042 3.721,-0.537 3.72,-1.143 0,-0.623 -1.654,-1.132 -3.716,-1.15 0.035,-1.015 0.116,-2.031 0.241,-3.046 0.526,-4.236 1.825,-8.289 3.862,-12.065 0.802,0.4 3.464,1.372 3.763,0.854 0.309,-0.536 -0.853,-1.79 -2.611,-2.834 1.402,-2.239 3.05,-4.304 4.91,-6.151 1.836,-1.823 3.878,-3.435 6.082,-4.801 1.053,1.808 2.339,3.015 2.884,2.701 0.544,-0.314 0.144,-2.029 -0.894,-3.844 4.629,-2.457 9.781,-3.837 15.021,-4.019 0.019,2.061 0.526,3.715 1.148,3.715 0.606,0 1.099,-2.86 1.144,-3.718 2.53,0.08 5.043,0.44 7.49,1.074 2.651,0.686 5.221,1.696 7.654,3.002 -1.041,1.819 -1.445,3.541 -0.898,3.856 0.538,0.312 2.489,-2.057 2.885,-2.704 C -5.629,-6.181 -2.535,-3.354 0,0 m -8.724,-11.695 c -12.028,-6.943 -26.305,-6.465 -37.527,0.014 -5.509,3.179 -10.281,7.806 -13.69,13.711 -10.354,17.933 -4.209,40.863 13.723,51.216 12.029,6.945 26.306,6.466 37.528,-0.012 C -3.181,50.053 1.591,45.428 5,39.523 15.353,21.59 9.21,-1.34 -8.724,-11.695 m -49.131,48.686 c 0.36,0.676 0.743,1.338 1.148,1.99 0.658,-0.405 3.008,-2.346 2.697,-2.883 -0.315,-0.545 -2.031,-0.145 -3.845,0.893"
             style="fill:#000000;fill-opacity:1;fill-rule:nonzero;stroke:none"
             id="path222"
             inkscape:connector-curvature="0" />
        </g>
        <g
           id="g224"
           transform="translate(1307.4707,2091.0352)">
          <path
             d="M 0,0 C 0.615,0.813 1.189,1.648 1.725,2.505 -0.08,3.556 -1.284,4.842 -0.97,5.387 -0.66,5.925 2.2,4.859 2.877,4.491 c 1.245,2.325 2.219,4.79 2.912,7.374 0.679,2.536 1.066,5.109 1.16,7.695 -0.747,0.015 -3.793,0.522 -3.793,1.146 10e-4,0.631 1.698,1.144 3.798,1.15 C 6.921,22.915 6.84,23.975 6.708,25.034 6.191,29.2 4.925,33.189 2.946,36.913 2.202,36.527 -0.556,35.508 -0.86,36.036 c -0.312,0.541 0.877,1.816 2.665,2.866 -1.426,2.306 -3.111,4.431 -5.019,6.327 -1.82,1.807 -3.842,3.406 -6.022,4.765 -1.053,-1.808 -2.338,-3.014 -2.883,-2.699 -0.545,0.314 -0.143,2.031 0.895,3.846 -4.645,2.478 -9.82,3.868 -15.083,4.052 -0.019,-2.061 -0.527,-3.714 -1.149,-3.714 -0.604,0 -1.099,2.859 -1.143,3.717 -2.53,-0.081 -5.043,-0.44 -7.49,-1.074 -2.63,-0.682 -5.181,-1.679 -7.596,-2.97 1.027,-1.806 1.421,-3.508 0.879,-3.822 -0.531,-0.307 -2.43,1.983 -2.866,2.674 -3.606,-2.241 -6.72,-5.08 -9.268,-8.451 -0.63,-0.834 -1.218,-1.692 -1.766,-2.572 -0.016,0.009 -0.029,0.017 -0.042,0.025 l -1.149,-1.991 c 0.014,-0.008 0.029,-0.016 0.043,-0.024 -1.227,-2.304 -2.189,-4.746 -2.875,-7.304 -0.691,-2.579 -1.08,-5.197 -1.164,-7.829 0.852,-0.042 3.721,-0.537 3.72,-1.143 0,-0.623 -1.654,-1.132 -3.716,-1.15 0.035,-1.015 0.116,-2.031 0.241,-3.046 0.526,-4.236 1.825,-8.289 3.862,-12.065 0.802,0.4 3.464,1.372 3.763,0.854 0.309,-0.536 -0.853,-1.79 -2.611,-2.834 1.402,-2.239 3.05,-4.304 4.91,-6.151 1.836,-1.823 3.878,-3.435 6.082,-4.801 1.053,1.808 2.339,3.015 2.884,2.701 0.544,-0.314 0.144,-2.029 -0.894,-3.844 4.629,-2.457 9.781,-3.837 15.021,-4.019 0.019,2.061 0.526,3.715 1.148,3.715 0.606,0 1.099,-2.86 1.144,-3.718 2.53,0.08 5.043,0.44 7.49,1.074 2.651,0.686 5.221,1.696 7.654,3.002 -1.041,1.819 -1.445,3.541 -0.898,3.856 0.538,0.312 2.489,-2.057 2.885,-2.704 C -5.629,-6.181 -2.535,-3.354 0,0 Z m -8.724,-11.695 c -12.028,-6.943 -26.305,-6.465 -37.527,0.014 -5.509,3.179 -10.281,7.806 -13.69,13.711 -10.354,17.933 -4.209,40.863 13.723,51.216 12.029,6.945 26.306,6.466 37.528,-0.012 C -3.181,50.053 1.591,45.428 5,39.523 15.353,21.59 9.21,-1.34 -8.724,-11.695 Z m -49.131,48.686 c 0.36,0.676 0.743,1.338 1.148,1.99 0.658,-0.405 3.008,-2.346 2.697,-2.883 -0.315,-0.545 -2.031,-0.145 -3.845,0.893 z"
             style="fill:none;stroke:#000000;stroke-width:0.76499999;stroke-linecap:butt;stroke-linejoin:miter;stroke-miterlimit:10;stroke-dasharray:none;stroke-opacity:1"
             id="path226"
             inkscape:connector-curvature="0" />
        </g>
        <g
           id="g228"
           transform="translate(644.8574,2110.9565)" />
      </g>
    </g>
  </g>
</svg>
