<?xml version="1.0" encoding="UTF-8" standalone="no"?>
<!-- Created with Inkscape (http://www.inkscape.org/) -->

<svg
   xmlns:dc="http://purl.org/dc/elements/1.1/"
   xmlns:cc="http://creativecommons.org/ns#"
   xmlns:rdf="http://www.w3.org/1999/02/22-rdf-syntax-ns#"
   xmlns:svg="http://www.w3.org/2000/svg"
   xmlns="http://www.w3.org/2000/svg"
   xmlns:sodipodi="http://sodipodi.sourceforge.net/DTD/sodipodi-0.dtd"
   xmlns:inkscape="http://www.inkscape.org/namespaces/inkscape"
   width="20mm"
   height="32mm"
   viewBox="0 0 70.866143 113.38583"
   id="svg18236"
   version="1.1"
   inkscape:version="0.91 r"
   sodipodi:docname="Lcd.svg">
  <defs
     id="defs18238">
    <clipPath
       clipPathUnits="userSpaceOnUse"
       id="clipPath80">
      <path
         d="m 0,6260.189 2557.562,0 L 2557.562,0 0,0 0,6260.189 Z"
         id="path82"
         inkscape:connector-curvature="0" />
    </clipPath>
    <clipPath
       clipPathUnits="userSpaceOnUse"
       id="clipPath116">
      <path
         d="m 0,6260.189 2557.562,0 L 2557.562,0 0,0 0,6260.189 Z"
         id="path118"
         inkscape:connector-curvature="0" />
    </clipPath>
  </defs>
  <sodipodi:namedview
     id="base"
     pagecolor="#ffffff"
     bordercolor="#666666"
     borderopacity="1.0"
     inkscape:pageopacity="0.0"
     inkscape:pageshadow="2"
     inkscape:zoom="1.4"
     inkscape:cx="206.20161"
     inkscape:cy="165.79989"
     inkscape:document-units="px"
     inkscape:current-layer="layer1"
     showgrid="false"
     inkscape:window-width="1920"
     inkscape:window-height="1016"
     inkscape:window-x="0"
     inkscape:window-y="0"
     inkscape:window-maximized="1" />
  <metadata
     id="metadata18241">
    <rdf:RDF>
      <cc:Work
         rdf:about="">
        <dc:format>image/svg+xml</dc:format>
        <dc:type
           rdf:resource="http://purl.org/dc/dcmitype/StillImage" />
        <dc:title></dc:title>
      </cc:Work>
    </rdf:RDF>
  </metadata>
  <g
     inkscape:label="Layer 1"
     inkscape:groupmode="layer"
     id="layer1"
     transform="translate(0,-938.97636)">
    <path
       d="m 35.000636,997.71602 c -10.3963,0 -18.855,-8.4587 -18.855,-18.855 0,-10.3962 8.4587,-18.8575 18.855,-18.8575 10.3962,0 18.855,8.4588 18.855,18.855 0,10.3963 -8.4588,18.8575 -18.855,18.8575 m 0,-47.9425 c -16.0388,0 -29.0888008,13.0488 -29.0888008,29.0875 0,15.3275 26.2700008,61.70748 27.3900008,63.67378 0.3488,0.6099 0.9975,0.9875 1.6988,0.9875 0.7012,0 1.35,-0.3776 1.6975,-0.9888 1.1187,-1.9662 27.39,-48.34618 27.39,-63.67498 0,-16.0362 -13.0488,-29.085 -29.0875,-29.085"
       style="fill:#000000;fill-opacity:1;fill-rule:nonzero;stroke:none"
       id="path230-2"
       inkscape:connector-curvature="0" />
  </g>
</svg>
